STARTFONT 2.1
FONT -FontForge-Peking Assignment-Book-R-Normal--56-540-75-75-P-167-ISO10646-1
SIZE 54 75 75
FONTBOUNDINGBOX 32 36 -7 -7
COMMENT "Generated by fontforge, http://fontforge.sourceforge.net"
COMMENT "Copyright NAL 2014"
STARTPROPERTIES 32
FOUNDRY "FontForge"
FAMILY_NAME "Peking Assignment"
WEIGHT_NAME "Book"
SLANT "R"
SETWIDTH_NAME "Normal"
ADD_STYLE_NAME ""
PIXEL_SIZE 56
POINT_SIZE 540
RESOLUTION_X 75
RESOLUTION_Y 75
SPACING "P"
AVERAGE_WIDTH 167
CHARSET_REGISTRY "ISO10646"
CHARSET_ENCODING "1"
FONTNAME_REGISTRY ""
CHARSET_COLLECTIONS "ISO10646-1"
FONT_NAME "Peking-Assignment"
FACE_NAME "Peking Assignment Regular"
COPYRIGHT "Copyright NAL 2014"
FONT_VERSION "001.000"
FONT_ASCENT 44
FONT_DESCENT 12
UNDERLINE_POSITION 0
UNDERLINE_THICKNESS 3
X_HEIGHT 17
CAP_HEIGHT 24
DEFAULT_CHAR 67
RAW_ASCENT 800
RAW_DESCENT 200
NORM_SPACE 6
AVG_LOWERCASE_WIDTH 171
AVG_UPPERCASE_WIDTH 219
ENDPROPERTIES
CHARS 100
STARTCHAR space
ENCODING 32
SWIDTH 100 0
DWIDTH 6 0
BBX 1 1 0 0
BITMAP
00
ENDCHAR
STARTCHAR exclam
ENCODING 33
SWIDTH 125 0
DWIDTH 8 0
BBX 3 25 0 0
BITMAP
E0
E0
E0
E0
E0
E0
E0
E0
E0
E0
E0
E0
E0
E0
E0
E0
E0
E0
00
00
00
00
E0
E0
E0
ENDCHAR
STARTCHAR quotedbl
ENCODING 34
SWIDTH 187 0
DWIDTH 11 0
BBX 7 7 0 19
BITMAP
FE
FE
FE
FE
FC
D8
90
ENDCHAR
STARTCHAR numbersign
ENCODING 35
SWIDTH 375 0
DWIDTH 22 0
BBX 18 25 0 0
BITMAP
1E3C00
1E3C00
1E3C00
1E3C00
1E3C00
1E3C00
1E3C00
FFFF80
FFFFC0
FFFFC0
FF3E00
1E3C00
1E3C00
1E3C00
FFFF80
FFFFC0
FFFFC0
FFFF80
1E3C00
1E3C00
1E3C00
1E3C00
1E3C00
1E3C00
1E1C00
ENDCHAR
STARTCHAR dollar
ENCODING 36
SWIDTH 375 0
DWIDTH 22 0
BBX 18 31 0 -2
BITMAP
01C000
01C000
01C000
1FFF80
3FFFC0
7FFFC0
FFFFC0
E1E7C0
E1C3C0
E1C3C0
E1C000
E1C000
E1C000
E1E000
FFFFC0
FFFFC0
FFFFC0
FFFFC0
01C3C0
01C3C0
01C3C0
E1C3C0
E1C3C0
E1C3C0
E1E780
FFFF00
FFFF00
FFFE00
01C000
01C000
01C000
ENDCHAR
STARTCHAR percent
ENCODING 37
SWIDTH 375 0
DWIDTH 22 0
BBX 18 25 0 0
BITMAP
FE03C0
FE03C0
FE03C0
FE03C0
FE03C0
FE03C0
FE03C0
0003C0
0003C0
0003C0
0003C0
1FFF80
7FFF00
FFFE00
F00000
E00000
E00000
E00000
E03FC0
E03FC0
E03FC0
E03FC0
E03FC0
E03FC0
E01F80
ENDCHAR
STARTCHAR ampersand
ENCODING 38
SWIDTH 375 0
DWIDTH 22 0
BBX 18 25 0 0
BITMAP
E1C000
E3C000
E7C000
EFC000
E00000
E00000
E00000
E01C00
E03C00
E03C00
E03F80
7FFFC0
3FFFC0
1FFFC0
E03E00
E03C00
E03C00
E03C00
E03C00
E03C00
E03C00
F03E00
FFFFC0
FFFFC0
FFFF80
ENDCHAR
STARTCHAR quotesingle
ENCODING 39
SWIDTH 125 0
DWIDTH 8 0
BBX 3 7 0 19
BITMAP
E0
E0
E0
E0
E0
C0
80
ENDCHAR
STARTCHAR parenleft
ENCODING 40
SWIDTH 187 0
DWIDTH 11 0
BBX 7 25 0 0
BITMAP
FE
FE
FE
FE
E0
E0
E0
E0
E0
E0
E0
E0
E0
E0
E0
E0
E0
E0
E0
E0
E0
F0
FE
FE
FE
ENDCHAR
STARTCHAR parenright
ENCODING 41
SWIDTH 187 0
DWIDTH 11 0
BBX 7 25 0 0
BITMAP
FE
FE
FE
FE
1E
1E
1E
1E
1E
1E
1E
1E
1E
1E
1E
1E
1E
1E
1E
1E
1E
1E
FE
FE
FE
ENDCHAR
STARTCHAR asterisk
ENCODING 42
SWIDTH 250 0
DWIDTH 14 0
BBX 10 10 0 15
BITMAP
1E00
9E40
DEC0
FFC0
1E00
1E00
1E00
FFC0
DEC0
9E40
ENDCHAR
STARTCHAR plus
ENCODING 43
SWIDTH 250 0
DWIDTH 14 0
BBX 10 10 0 8
BITMAP
1E00
1E00
1E00
1FC0
FFC0
FFC0
FFC0
1E00
1E00
1E00
ENDCHAR
STARTCHAR comma
ENCODING 44
SWIDTH 125 0
DWIDTH 8 0
BBX 3 6 0 -2
BITMAP
E0
E0
E0
E0
C0
80
ENDCHAR
STARTCHAR hyphen
ENCODING 45
SWIDTH 250 0
DWIDTH 14 0
BBX 10 4 0 10
BITMAP
FFC0
FFC0
FFC0
FFC0
ENDCHAR
STARTCHAR period
ENCODING 46
SWIDTH 125 0
DWIDTH 8 0
BBX 3 3 0 1
BITMAP
E0
E0
E0
ENDCHAR
STARTCHAR slash
ENCODING 47
SWIDTH 375 0
DWIDTH 22 0
BBX 18 25 0 0
BITMAP
0003C0
0003C0
0003C0
0003C0
0003C0
0003C0
0003C0
0003C0
0003C0
0003C0
0003C0
1FFF80
7FFF00
FFFE00
F00000
E00000
E00000
E00000
E00000
E00000
E00000
E00000
E00000
E00000
E00000
ENDCHAR
STARTCHAR zero
ENCODING 48
SWIDTH 300 0
DWIDTH 17 0
BBX 14 25 0 0
BITMAP
FFFC
FFFC
FFFC
FFFC
E03C
E03C
E03C
E03C
E07C
E0FC
E0FC
E1FC
E7BC
EF3C
FE3C
FC3C
F83C
F03C
E03C
E03C
E03C
F03C
FFFC
FFFC
FFFC
ENDCHAR
STARTCHAR one
ENCODING 49
SWIDTH 300 0
DWIDTH 17 0
BBX 6 25 7 0
BITMAP
3C
3C
3C
7C
FC
FC
0C
0C
1C
3C
3C
3C
3C
3C
3C
3C
3C
3C
3C
3C
3C
3C
3C
3C
38
ENDCHAR
STARTCHAR two
ENCODING 50
SWIDTH 300 0
DWIDTH 17 0
BBX 14 25 0 0
BITMAP
E1E0
E3F0
E7F8
EFFC
E03C
E03C
E03C
003C
003C
003C
003C
FFFC
FFFC
FFFC
F000
E000
E000
E000
E03C
E03C
E03C
F03C
FFFC
FFBC
FF1C
ENDCHAR
STARTCHAR three
ENCODING 51
SWIDTH 300 0
DWIDTH 17 0
BBX 14 25 0 0
BITMAP
FE3C
FF3C
FFBC
FFFC
E03C
E03C
E03C
003C
003C
003C
003C
1FFC
1FF8
1FF0
003C
003C
003C
003C
E03C
E03C
E03C
F03C
FFFC
FFFC
FFFC
ENDCHAR
STARTCHAR four
ENCODING 52
SWIDTH 300 0
DWIDTH 17 0
BBX 14 25 0 0
BITMAP
E0F0
E0F0
E0F0
E0F0
E0F0
E0F0
E0F0
E0F0
E0F0
E0F0
E0F0
E0F0
E0F0
E0F0
E1FC
E3FC
E7FC
EFFC
00F0
00F0
00F0
00F0
00F0
00F0
00F0
ENDCHAR
STARTCHAR five
ENCODING 53
SWIDTH 300 0
DWIDTH 17 0
BBX 14 25 0 0
BITMAP
FE3C
FF3C
FFBC
FFFC
E03C
E03C
E03C
E000
E000
E000
FFFC
FFFC
FFFC
FFFC
003C
003C
003C
003C
E03C
E03C
E03C
E03C
EFF8
E7F0
E7E0
ENDCHAR
STARTCHAR six
ENCODING 54
SWIDTH 300 0
DWIDTH 17 0
BBX 14 25 0 0
BITMAP
FE3C
FF3C
FFBC
FFFC
E03C
E03C
E03C
E000
E000
E000
E1FC
E3FC
E7FC
EFFC
E03C
E03C
E03C
E03C
E03C
E03C
E03C
F03C
FFFC
FFFC
FFFC
ENDCHAR
STARTCHAR seven
ENCODING 55
SWIDTH 300 0
DWIDTH 17 0
BBX 14 25 0 0
BITMAP
E1FC
E3FC
E7FC
EFFC
E03C
E03C
E03C
003C
003C
003C
003C
1FFC
7FF8
FFF0
F000
E000
E000
E000
E000
E000
E000
E000
E000
E000
E000
ENDCHAR
STARTCHAR eight
ENCODING 56
SWIDTH 300 0
DWIDTH 17 0
BBX 14 25 0 0
BITMAP
FE3C
FF3C
FFBC
FFFC
E03C
E03C
E03C
E03C
E03C
E03C
E03C
3FFC
7FF8
FFF0
F03C
E03C
E03C
E03C
E03C
E03C
E03C
F03C
FFFC
FFFC
FFFC
ENDCHAR
STARTCHAR nine
ENCODING 57
SWIDTH 300 0
DWIDTH 17 0
BBX 14 25 0 0
BITMAP
FFFC
FFFC
FFFC
FFFC
E03C
E03C
E03C
E03C
E03C
E03C
FFFC
FFFC
FFBC
FF3C
003C
003C
003C
003C
E03C
E03C
E03C
E03C
EFFC
E7FC
E1FC
ENDCHAR
STARTCHAR colon
ENCODING 58
SWIDTH 100 0
DWIDTH 6 0
BBX 3 11 0 7
BITMAP
E0
E0
E0
E0
00
00
00
E0
E0
E0
E0
ENDCHAR
STARTCHAR semicolon
ENCODING 59
SWIDTH 100 0
DWIDTH 6 0
BBX 3 13 0 5
BITMAP
E0
E0
E0
E0
00
00
00
E0
E0
E0
E0
E0
80
ENDCHAR
STARTCHAR less
ENCODING 60
SWIDTH 187 0
DWIDTH 11 0
BBX 7 25 0 0
BITMAP
FE
FE
FE
FE
E0
E0
E0
E0
E0
E0
E0
E0
E0
E0
E0
E0
E0
E0
E0
E0
E0
F0
FE
FE
FE
ENDCHAR
STARTCHAR equal
ENCODING 61
SWIDTH 250 0
DWIDTH 14 0
BBX 10 10 0 8
BITMAP
FFC0
FFC0
FFC0
FFC0
0000
0000
0000
FFC0
FFC0
FFC0
ENDCHAR
STARTCHAR greater
ENCODING 62
SWIDTH 187 0
DWIDTH 11 0
BBX 7 25 0 0
BITMAP
FE
FE
FE
FE
1E
1E
1E
1E
1E
1E
1E
1E
1E
1E
1E
1E
1E
1E
1E
1E
1E
1E
FE
FE
FE
ENDCHAR
STARTCHAR question
ENCODING 63
SWIDTH 375 0
DWIDTH 22 0
BBX 18 25 0 0
BITMAP
E1FE00
E3FF00
E7FF00
EFFF80
E003C0
E003C0
E003C0
0003C0
0003C0
0003C0
0003C0
1FFFC0
1FFFC0
1FFFC0
1F0000
1E0000
1E0000
0E0000
000000
000000
000000
000000
1E0000
1E0000
1E0000
ENDCHAR
STARTCHAR at
ENCODING 64
SWIDTH 375 0
DWIDTH 22 0
BBX 18 25 0 0
BITMAP
FFFFC0
FFFFC0
FFFFC0
FFFFC0
E003C0
E003C0
E003C0
E1C3C0
E1C3C0
E1C3C0
E1C3C0
E1C3C0
E1C3C0
E1C3C0
E1C3C0
E1C7C0
E1CFC0
E0CF80
000000
200000
600000
F00000
FFFFC0
FFFFC0
FFFF80
ENDCHAR
STARTCHAR A
ENCODING 65
SWIDTH 375 0
DWIDTH 22 0
BBX 18 25 0 0
BITMAP
FFFFC0
FFFFC0
FFFFC0
FFFFC0
E003C0
E003C0
E003C0
E003C0
E003C0
E003C0
E003C0
E1FFC0
E7FFC0
EFFFC0
E007C0
E003C0
E003C0
E003C0
E003C0
E003C0
E003C0
E003C0
E003C0
E003C0
E00380
ENDCHAR
STARTCHAR B
ENCODING 66
SWIDTH 375 0
DWIDTH 22 0
BBX 18 25 0 0
BITMAP
E1FFC0
E3FFC0
E7FFC0
EFFFC0
E003C0
E003C0
E003C0
E003C0
E003C0
E003C0
E003C0
E1FF80
E7FF00
EFFE00
E00780
E003C0
E003C0
E003C0
E003C0
E003C0
E003C0
E007C0
EFFFC0
E7FFC0
E1FF80
ENDCHAR
STARTCHAR C
ENCODING 67
SWIDTH 375 0
DWIDTH 22 0
BBX 18 25 0 0
BITMAP
FFE3C0
FFF3C0
FFF3C0
FFFFC0
E003C0
E003C0
E003C0
E00000
E00000
E00000
E00000
E00000
E00000
E00000
E00000
E00000
E00000
E00000
E003C0
E003C0
E003C0
F007C0
FFFFC0
FFF3C0
FFE380
ENDCHAR
STARTCHAR D
ENCODING 68
SWIDTH 375 0
DWIDTH 22 0
BBX 18 25 0 0
BITMAP
E1FFC0
E3FFC0
E7FFC0
EFFFC0
E003C0
E003C0
E003C0
E003C0
E003C0
E003C0
E003C0
E003C0
E003C0
E003C0
E003C0
E003C0
E003C0
E003C0
E003C0
E003C0
E003C0
E007C0
EFFFC0
E7FFC0
E1FF80
ENDCHAR
STARTCHAR E
ENCODING 69
SWIDTH 375 0
DWIDTH 22 0
BBX 18 25 0 0
BITMAP
E1FFC0
E3FFC0
E7FFC0
EFFFC0
E003C0
E003C0
E003C0
E00000
E00000
E00000
E0FC00
E1FC00
E7FC00
EFFC00
E00000
E00000
E00000
E00000
E003C0
E003C0
E003C0
F007C0
FFFFC0
FFFFC0
FFFF80
ENDCHAR
STARTCHAR F
ENCODING 70
SWIDTH 375 0
DWIDTH 22 0
BBX 18 25 0 0
BITMAP
E1FFC0
E3FFC0
E7FFC0
EFFFC0
E003C0
E003C0
E003C0
E00000
E00000
E00000
E0FC00
E1FC00
E7FC00
EFFC00
E00000
E00000
E00000
E00000
E00000
E00000
E00000
E00000
E00000
E00000
E00000
ENDCHAR
STARTCHAR G
ENCODING 71
SWIDTH 375 0
DWIDTH 22 0
BBX 18 25 0 0
BITMAP
FFE3C0
FFF3C0
FFF3C0
FFFFC0
E003C0
E003C0
E003C0
E00000
E00000
E00000
E0FF80
E1FFC0
E1FFC0
E1FFC0
E007C0
E003C0
E003C0
E003C0
E003C0
E003C0
E003C0
F007C0
FFFFC0
FFF3C0
FFE380
ENDCHAR
STARTCHAR H
ENCODING 72
SWIDTH 375 0
DWIDTH 22 0
BBX 18 25 0 0
BITMAP
E003C0
E003C0
E003C0
E003C0
E003C0
E003C0
E003C0
E003C0
E003C0
E003C0
E003C0
E1FFC0
E7FFC0
EFFFC0
E007C0
E003C0
E003C0
E003C0
E003C0
E003C0
E003C0
E003C0
E003C0
E003C0
E00380
ENDCHAR
STARTCHAR I
ENCODING 73
SWIDTH 125 0
DWIDTH 8 0
BBX 3 25 0 0
BITMAP
E0
E0
E0
E0
E0
E0
E0
E0
E0
E0
E0
E0
E0
E0
E0
E0
E0
E0
E0
E0
E0
E0
E0
E0
E0
ENDCHAR
STARTCHAR J
ENCODING 74
SWIDTH 375 0
DWIDTH 22 0
BBX 18 25 0 0
BITMAP
003FC0
003FC0
003FC0
003FC0
0003C0
0003C0
0003C0
0003C0
0003C0
0003C0
0003C0
0003C0
0003C0
0003C0
0003C0
0003C0
0003C0
0003C0
E003C0
E003C0
E003C0
E007C0
EFFFC0
E7FFC0
E1FF80
ENDCHAR
STARTCHAR K
ENCODING 75
SWIDTH 375 0
DWIDTH 22 0
BBX 18 25 0 0
BITMAP
E003C0
E003C0
E003C0
E003C0
E003C0
E003C0
E003C0
E003C0
E003C0
E003C0
E003C0
E1FF80
E7FF00
EFFE00
E00780
E003C0
E003C0
E003C0
E003C0
E003C0
E003C0
E003C0
E003C0
E003C0
E00380
ENDCHAR
STARTCHAR L
ENCODING 76
SWIDTH 375 0
DWIDTH 22 0
BBX 18 25 0 0
BITMAP
FE0000
FE0000
FE0000
FE0000
E00000
E00000
E00000
E00000
E00000
E00000
E00000
E00000
E00000
E00000
E00000
E00000
E00000
E00000
E003C0
E003C0
E003C0
E007C0
E3FFC0
E7FFC0
EFFF80
ENDCHAR
STARTCHAR M
ENCODING 77
SWIDTH 500 0
DWIDTH 28 0
BBX 25 25 0 0
BITMAP
E1FC7F80
E3FCFF80
E7FCFF80
EFFFFF80
E03C0780
E03C0780
E03C0780
E03C0780
E03C0780
E03C0780
E03C0780
E03C0780
E03C0780
E03C0780
E03C0780
E03C0780
E03C0780
E03C0780
E03C0780
E03C0780
E03C0780
E03C0780
E03C0780
E03C0780
E01C0780
ENDCHAR
STARTCHAR N
ENCODING 78
SWIDTH 375 0
DWIDTH 22 0
BBX 18 25 0 0
BITMAP
E1FFC0
E3FFC0
E7FFC0
EFFFC0
E003C0
E003C0
E003C0
E003C0
E003C0
E003C0
E003C0
E003C0
E003C0
E003C0
E003C0
E003C0
E003C0
E003C0
E003C0
E003C0
E003C0
E003C0
E003C0
E003C0
E00380
ENDCHAR
STARTCHAR O
ENCODING 79
SWIDTH 375 0
DWIDTH 22 0
BBX 18 25 0 0
BITMAP
FFFFC0
FFFFC0
FFFFC0
FFFFC0
E003C0
E003C0
E003C0
E003C0
E003C0
E003C0
E003C0
E003C0
E003C0
E003C0
E003C0
E003C0
E003C0
E003C0
E003C0
E003C0
E003C0
F007C0
FFFFC0
FFFFC0
FFFF80
ENDCHAR
STARTCHAR P
ENCODING 80
SWIDTH 375 0
DWIDTH 22 0
BBX 18 25 0 0
BITMAP
E1FFC0
E3FFC0
E7FFC0
EFFFC0
E003C0
E003C0
E003C0
E003C0
E003C0
E003C0
E003C0
EFFFC0
E7FFC0
E3FFC0
E00000
E00000
E00000
E00000
E00000
E00000
E00000
E00000
E00000
E00000
E00000
ENDCHAR
STARTCHAR Q
ENCODING 81
SWIDTH 375 0
DWIDTH 22 0
BBX 18 28 0 -3
BITMAP
FFFFC0
FFFFC0
FFFFC0
FFFFC0
E003C0
E003C0
E003C0
E003C0
E003C0
E003C0
E003C0
E003C0
E003C0
E003C0
E0C3C0
E1C3C0
E1C3C0
E1C3C0
E1C3C0
E1C3C0
E1C3C0
F1C7C0
FFCFC0
FFC7C0
FFC380
01C000
01C000
01C000
ENDCHAR
STARTCHAR R
ENCODING 82
SWIDTH 375 0
DWIDTH 22 0
BBX 18 25 0 0
BITMAP
E1FFC0
E3FFC0
E7FFC0
EFFFC0
E003C0
E003C0
E003C0
E003C0
E003C0
E003C0
FFFFC0
EFFE00
E7FF00
E3FF80
E007C0
E003C0
E003C0
E003C0
E003C0
E003C0
E003C0
E003C0
E003C0
E003C0
E00380
ENDCHAR
STARTCHAR S
ENCODING 83
SWIDTH 375 0
DWIDTH 22 0
BBX 18 25 0 0
BITMAP
FFE3C0
FFF3C0
FFF3C0
FFFFC0
E003C0
E003C0
E003C0
E00000
E00000
E00000
FFFF80
FFFFC0
FFFFC0
FFFFC0
0007C0
0003C0
0003C0
0003C0
E003C0
E003C0
E003C0
E007C0
EFFFC0
E7FFC0
E1FF80
ENDCHAR
STARTCHAR T
ENCODING 84
SWIDTH 375 0
DWIDTH 22 0
BBX 18 25 0 0
BITMAP
FFFFC0
FDFFC0
F9FFC0
F1FFC0
E1C3C0
E1C3C0
E1C3C0
01C000
01C000
01C000
01C000
01C000
01C000
01C000
01C000
01C000
01C000
01C000
01C000
01C000
01C000
01C000
01C000
01C000
01C000
ENDCHAR
STARTCHAR U
ENCODING 85
SWIDTH 375 0
DWIDTH 22 0
BBX 18 25 0 0
BITMAP
E003C0
E003C0
E003C0
E003C0
E003C0
E003C0
E003C0
E003C0
E003C0
E003C0
E003C0
E003C0
E003C0
E003C0
E003C0
E003C0
E003C0
E003C0
E003C0
E003C0
E003C0
F007C0
FFFFC0
FFF3C0
FFE380
ENDCHAR
STARTCHAR V
ENCODING 86
SWIDTH 375 0
DWIDTH 22 0
BBX 18 25 0 0
BITMAP
E003C0
E003C0
E003C0
E003C0
E003C0
E003C0
E003C0
E003C0
E003C0
E003C0
E003C0
E003C0
E003C0
E003C0
E003C0
E003C0
E003C0
E003C0
E003C0
E003C0
E003C0
F00780
7FFF00
3FFE00
1FFC00
ENDCHAR
STARTCHAR W
ENCODING 87
SWIDTH 500 0
DWIDTH 28 0
BBX 25 25 0 0
BITMAP
E03C0780
E03C0780
E03C0780
E03C0780
E03C0780
E03C0780
E03C0780
E03C0780
E03C0780
E03C0780
E03C0780
E03C0780
E03C0780
E03C0780
E03C0780
E03C0780
E03C0780
E03C0780
E03C0780
E03C0780
E03C0780
F03E0780
FFBFF780
FF3FE780
FE1F8780
ENDCHAR
STARTCHAR X
ENCODING 88
SWIDTH 375 0
DWIDTH 22 0
BBX 18 25 0 0
BITMAP
E003C0
E003C0
E003C0
E003C0
E003C0
E003C0
E003C0
E003C0
6003C0
2003C0
0003C0
FFFFC0
FFFFC0
FFFFC0
F00600
E00200
E00300
E00380
E003C0
E003C0
E003C0
E003C0
E003C0
E003C0
E00380
ENDCHAR
STARTCHAR Y
ENCODING 89
SWIDTH 375 0
DWIDTH 22 0
BBX 18 25 0 0
BITMAP
E003C0
E003C0
E003C0
E003C0
E003C0
E003C0
E003C0
E003C0
6003C0
2003C0
0003C0
FFFFC0
FFFFC0
FFFFC0
000000
010000
018000
01C000
01C000
01C000
01C000
01C000
01C000
01C000
01C000
ENDCHAR
STARTCHAR Z
ENCODING 90
SWIDTH 375 0
DWIDTH 22 0
BBX 18 25 0 0
BITMAP
E1FFC0
E3FFC0
E7FFC0
EFFFC0
E003C0
E003C0
E003C0
0003C0
0003C0
0003C0
0003C0
1FFF80
7FFF00
FFFE00
F00000
E00000
E00000
E00000
E003C0
E003C0
E003C0
F007C0
FFFFC0
FFF3C0
FFE380
ENDCHAR
STARTCHAR bracketleft
ENCODING 91
SWIDTH 187 0
DWIDTH 11 0
BBX 7 25 0 0
BITMAP
FE
FE
FE
FE
E0
E0
E0
E0
E0
E0
E0
E0
E0
E0
E0
E0
E0
E0
E0
E0
E0
F0
FE
FE
FE
ENDCHAR
STARTCHAR backslash
ENCODING 92
SWIDTH 375 0
DWIDTH 22 0
BBX 18 25 0 0
BITMAP
E00000
E00000
E00000
E00000
E00000
E00000
E00000
E00000
E00000
E00000
FFFC00
7FFE00
3FFF00
1FFF80
0007C0
0003C0
0003C0
0003C0
0003C0
0003C0
0003C0
0003C0
0003C0
0003C0
000380
ENDCHAR
STARTCHAR bracketright
ENCODING 93
SWIDTH 187 0
DWIDTH 11 0
BBX 7 25 0 0
BITMAP
FE
FE
FE
FE
1E
1E
1E
1E
1E
1E
1E
1E
1E
1E
1E
1E
1E
1E
1E
1E
1E
1E
FE
FE
FE
ENDCHAR
STARTCHAR asciicircum
ENCODING 94
SWIDTH 125 0
DWIDTH 8 0
BBX 3 7 0 19
BITMAP
E0
E0
E0
E0
E0
C0
80
ENDCHAR
STARTCHAR underscore
ENCODING 95
SWIDTH 375 0
DWIDTH 22 0
BBX 18 3 0 1
BITMAP
FFFFC0
FFFFC0
FFFFC0
ENDCHAR
STARTCHAR grave
ENCODING 96
SWIDTH 125 0
DWIDTH 8 0
BBX 3 7 0 19
BITMAP
E0
E0
E0
E0
E0
C0
80
ENDCHAR
STARTCHAR a
ENCODING 97
SWIDTH 312 0
DWIDTH 18 0
BBX 14 18 0 0
BITMAP
FE3C
FF3C
FFBC
E03C
E03C
E03C
E03C
E03C
E03C
E03C
E03C
E03C
E03C
E03C
FFBC
FFBC
FF3C
FE1C
ENDCHAR
STARTCHAR b
ENCODING 98
SWIDTH 312 0
DWIDTH 18 0
BBX 14 25 0 0
BITMAP
E000
E000
E000
E000
E000
E000
E000
E1FC
E7FC
EFFC
FFFC
E03C
E03C
E03C
E03C
E03C
E03C
E03C
E03C
E03C
E03C
E03C
EFFC
E7FC
E1FC
ENDCHAR
STARTCHAR c
ENCODING 99
SWIDTH 312 0
DWIDTH 18 0
BBX 14 18 0 0
BITMAP
FFFC
FFFC
FFFC
FFFC
203C
603C
E03C
E000
E000
E000
E01C
E03C
E03C
E03C
FFFC
FFFC
FFFC
FFFC
ENDCHAR
STARTCHAR d
ENCODING 100
SWIDTH 312 0
DWIDTH 18 0
BBX 14 25 0 0
BITMAP
003C
003C
003C
003C
003C
003C
003C
FE3C
FF3C
FFBC
F03C
E03C
E03C
E03C
E03C
E03C
E03C
E03C
E03C
E03C
E03C
F03C
FFBC
FF3C
FE1C
ENDCHAR
STARTCHAR e
ENCODING 101
SWIDTH 312 0
DWIDTH 18 0
BBX 14 18 0 0
BITMAP
FFFC
FFFC
FFFC
FFFC
203C
603C
E03C
EFFC
E7FC
E3FC
E000
E000
E000
E000
FFFC
FFFC
FFFC
FFFC
ENDCHAR
STARTCHAR f
ENCODING 102
SWIDTH 250 0
DWIDTH 14 0
BBX 10 25 0 0
BITMAP
FFC0
FFC0
FFC0
FFC0
6000
2000
0000
FFC0
FFC0
FFC0
F000
E000
E000
E000
E000
E000
E000
E000
E000
E000
E000
E000
E000
E000
E000
ENDCHAR
STARTCHAR g
ENCODING 103
SWIDTH 312 0
DWIDTH 18 0
BBX 14 25 0 -7
BITMAP
FE3C
FF3C
FFBC
E03C
E03C
E03C
E03C
E03C
E03C
E03C
E03C
E03C
E03C
E03C
FFBC
FFBC
FF3C
FE3C
003C
003C
003C
1FFC
1FFC
1FFC
1FFC
ENDCHAR
STARTCHAR h
ENCODING 104
SWIDTH 312 0
DWIDTH 18 0
BBX 14 25 0 0
BITMAP
E000
E000
E000
E000
E000
E000
E000
E1FC
E7FC
EFFC
FFFC
E03C
E03C
E03C
E03C
E03C
E03C
E03C
E03C
E03C
E03C
E03C
E03C
E03C
E01C
ENDCHAR
STARTCHAR i
ENCODING 105
SWIDTH 125 0
DWIDTH 8 0
BBX 3 25 0 0
BITMAP
E0
E0
E0
E0
00
00
00
E0
E0
E0
E0
E0
E0
E0
E0
E0
E0
E0
E0
E0
E0
E0
E0
E0
E0
ENDCHAR
STARTCHAR j
ENCODING 106
SWIDTH 125 0
DWIDTH 8 0
BBX 10 32 -7 -7
BITMAP
01C0
01C0
01C0
01C0
0000
0000
0000
01C0
01C0
01C0
01C0
01C0
01C0
01C0
01C0
01C0
01C0
01C0
01C0
01C0
01C0
01C0
01C0
01C0
01C0
01C0
01C0
01C0
FFC0
FFC0
FFC0
FFC0
ENDCHAR
STARTCHAR k
ENCODING 107
SWIDTH 312 0
DWIDTH 18 0
BBX 14 25 0 0
BITMAP
E000
E000
E000
E000
E000
E000
E000
E01C
E03C
E03C
E03C
603C
203C
003C
FFFC
FFFC
FFFC
FFFC
E000
E030
E038
E03C
E03C
E03C
E01C
ENDCHAR
STARTCHAR l
ENCODING 108
SWIDTH 125 0
DWIDTH 8 0
BBX 3 25 0 0
BITMAP
E0
E0
E0
E0
E0
E0
E0
E0
E0
E0
E0
E0
E0
E0
E0
E0
E0
E0
E0
E0
E0
E0
E0
E0
E0
ENDCHAR
STARTCHAR m
ENCODING 109
SWIDTH 500 0
DWIDTH 28 0
BBX 25 18 0 0
BITMAP
E3FC7F80
E7FCFF80
EFFFFF80
FFFFFF80
E03C0780
E03C0780
E03C0780
E03C0780
E03C0780
E03C0780
E03C0780
E03C0780
E03C0780
E03C0780
E03C0780
E03C0780
E03C0780
E01C0700
ENDCHAR
STARTCHAR n
ENCODING 110
SWIDTH 312 0
DWIDTH 18 0
BBX 14 18 0 0
BITMAP
E3FC
E7FC
EFFC
FFFC
E03C
E03C
E03C
E03C
E03C
E03C
E03C
E03C
E03C
E03C
E03C
E03C
E03C
E01C
ENDCHAR
STARTCHAR o
ENCODING 111
SWIDTH 312 0
DWIDTH 18 0
BBX 14 18 0 0
BITMAP
FFFC
FFFC
FFFC
E03C
E03C
E03C
E03C
E03C
E03C
E03C
E03C
E03C
E03C
E03C
FFFC
FFFC
FFFC
FFFC
ENDCHAR
STARTCHAR p
ENCODING 112
SWIDTH 312 0
DWIDTH 18 0
BBX 14 25 0 -7
BITMAP
E3FC
E7FC
EFFC
FFFC
E03C
E03C
E03C
E03C
E03C
E03C
E03C
E03C
E03C
E03C
EFFC
E7FC
E3FC
E1FC
E000
E000
E000
E000
E000
E000
E000
ENDCHAR
STARTCHAR q
ENCODING 113
SWIDTH 312 0
DWIDTH 18 0
BBX 14 25 0 -7
BITMAP
FE3C
FF3C
FFBC
E03C
E03C
E03C
E03C
E03C
E03C
E03C
E03C
E03C
E03C
E03C
FFBC
FFBC
FF3C
FE3C
003C
003C
003C
003C
003C
003C
001C
ENDCHAR
STARTCHAR r
ENCODING 114
SWIDTH 250 0
DWIDTH 14 0
BBX 10 18 0 0
BITMAP
E3C0
E7C0
EFC0
FFC0
E000
E000
E000
E000
E000
E000
E000
E000
E000
E000
E000
E000
E000
E000
ENDCHAR
STARTCHAR s
ENCODING 115
SWIDTH 312 0
DWIDTH 18 0
BBX 14 18 0 0
BITMAP
FFFC
FFFC
FFFC
E000
6000
2000
0000
FFFC
FFFC
FFFC
003C
003C
003C
003C
FFFC
FFFC
FFFC
FFFC
ENDCHAR
STARTCHAR t
ENCODING 116
SWIDTH 250 0
DWIDTH 14 0
BBX 10 25 0 0
BITMAP
E000
E000
E000
E000
E000
E000
E000
FFC0
FFC0
FFC0
FFC0
2000
6000
E000
E000
E000
E000
E000
E000
E000
E000
F000
FFC0
FFC0
FFC0
ENDCHAR
STARTCHAR u
ENCODING 117
SWIDTH 312 0
DWIDTH 18 0
BBX 14 18 0 0
BITMAP
E03C
E03C
E03C
E03C
E03C
E03C
E03C
E03C
E03C
E03C
E03C
E03C
E03C
E03C
FFBC
FFBC
FF3C
FE1C
ENDCHAR
STARTCHAR v
ENCODING 118
SWIDTH 312 0
DWIDTH 18 0
BBX 14 18 0 0
BITMAP
E03C
E03C
E03C
E03C
E03C
E03C
E03C
E03C
E03C
E03C
E03C
E03C
E03C
E03C
FFFC
7FF8
1FF0
0FE0
ENDCHAR
STARTCHAR w
ENCODING 119
SWIDTH 500 0
DWIDTH 28 0
BBX 25 18 0 0
BITMAP
E03C0780
E03C0780
E03C0780
E03C0780
E03C0780
E03C0780
E03C0780
E03C0780
E03C0780
E03C0780
E03C0780
E03C0780
E03C0780
E03C0780
FFBFF780
FFBFE780
FF3FC780
FE1F8700
ENDCHAR
STARTCHAR x
ENCODING 120
SWIDTH 312 0
DWIDTH 18 0
BBX 14 18 0 0
BITMAP
E03C
E03C
E03C
E03C
603C
203C
003C
FFFC
FFFC
FFFC
F000
E000
E030
E038
E03C
E03C
E03C
E01C
ENDCHAR
STARTCHAR y
ENCODING 121
SWIDTH 312 0
DWIDTH 18 0
BBX 14 25 0 -7
BITMAP
E03C
E03C
E03C
E03C
E03C
E03C
E03C
E03C
E03C
E03C
E03C
E03C
E03C
E03C
FFBC
FFBC
FF3C
FE3C
003C
003C
003C
1FFC
1FFC
1FFC
1FFC
ENDCHAR
STARTCHAR z
ENCODING 122
SWIDTH 312 0
DWIDTH 18 0
BBX 14 18 0 0
BITMAP
FFFC
FFFC
FFFC
FFFC
003C
003C
003C
FFFC
FFFC
FFFC
F000
6000
2000
0000
FFFC
FFFC
FFFC
FFFC
ENDCHAR
STARTCHAR braceleft
ENCODING 123
SWIDTH 250 0
DWIDTH 14 0
BBX 10 25 0 0
BITMAP
1FC0
1FC0
1FC0
1FC0
1E00
1E00
1E00
1E00
1E00
1E00
1E00
FE00
FE00
FE00
1E00
1E00
1E00
1E00
1E00
1E00
1E00
1F00
1FC0
1FC0
1FC0
ENDCHAR
STARTCHAR bar
ENCODING 124
SWIDTH 125 0
DWIDTH 8 0
BBX 3 25 0 0
BITMAP
E0
E0
E0
E0
E0
E0
E0
E0
E0
E0
E0
E0
E0
E0
E0
E0
E0
E0
E0
E0
E0
E0
E0
E0
E0
ENDCHAR
STARTCHAR braceright
ENCODING 125
SWIDTH 250 0
DWIDTH 14 0
BBX 10 25 0 0
BITMAP
FE00
FE00
FE00
FE00
1E00
1E00
1E00
1E00
1E00
1E00
1FC0
1FC0
1FC0
1FC0
1F00
1E00
1E00
1E00
1E00
1E00
1E00
1E00
FE00
FE00
FE00
ENDCHAR
STARTCHAR asciitilde
ENCODING 126
SWIDTH 250 0
DWIDTH 14 0
BBX 10 4 0 10
BITMAP
FFC0
FFC0
FFC0
FFC0
ENDCHAR
STARTCHAR quoteleft
ENCODING 8216
SWIDTH 125 0
DWIDTH 8 0
BBX 3 6 0 19
BITMAP
20
60
E0
E0
E0
E0
ENDCHAR
STARTCHAR quoteright
ENCODING 8217
SWIDTH 125 0
DWIDTH 8 0
BBX 3 7 0 19
BITMAP
E0
E0
E0
E0
E0
C0
80
ENDCHAR
STARTCHAR quotedblleft
ENCODING 8220
SWIDTH 187 0
DWIDTH 11 0
BBX 7 6 0 19
BITMAP
22
66
EE
FE
FE
FE
ENDCHAR
STARTCHAR quotedblright
ENCODING 8221
SWIDTH 187 0
DWIDTH 11 0
BBX 7 7 0 19
BITMAP
FE
FE
FE
FE
FC
D8
90
ENDCHAR
STARTCHAR .notdef
ENCODING 8231
SWIDTH 125 0
DWIDTH 8 0
BBX 1 1 0 0
BITMAP
00
ENDCHAR
ENDFONT
